<?xml version="1.0" standalone="no"?><!DOCTYPE svg PUBLIC "-//W3C//DTD SVG 1.1//EN" "http://www.w3.org/Graphics/SVG/1.1/DTD/svg11.dtd"><svg t="1508492356229" class="icon" style="" viewBox="0 0 1024 1024" version="1.1" xmlns="http://www.w3.org/2000/svg" p-id="2390" xmlns:xlink="http://www.w3.org/1999/xlink" width="200" height="200"><defs><style type="text/css"></style></defs><path d="M602.352941 1023.999994c-7.288471 0-14.456471-2.650353-20.118588-7.770353L289.671531 752.941172 120.470591 752.941172c-48.429176 0-120.470588-32.105412-120.470588-120.470588l0-180.705881c0-48.429176 32.105412-120.470588 120.470588-120.470588l169.140705 0 292.562822-263.348704c8.854588-8.011294 21.564235-9.938823 32.406588-5.12C625.543529 67.70447 632.470588 78.486588 632.470588 90.352941l0 903.529406c0 11.866353-6.927059 22.708706-17.829647 27.527529C610.725646 1023.1567 606.509176 1023.999994 602.352941 1023.999994zM120.470591 391.529409c-57.344 0-60.235294 50.176-60.235294 60.235294l0 180.705881c0 57.283764 50.176 60.235294 60.235294 60.235294l180.705881 0c7.469176 0 14.637176 2.770824 20.118588 7.770353L572.235294 926.238112 572.235294 157.997176 321.355295 383.759057C315.813648 388.758586 308.645648 391.529409 301.176472 391.529409L120.470591 391.529409z" p-id="2391" fill="#bfbfbf"></path><path d="M752.941175 361.411763c-7.649882 0-15.420235-2.951529-21.323294-8.794353-11.745882-11.745882-11.745882-30.84047 0-42.586353l120.470588-120.470588c11.745882-11.745882 30.84047-11.745882 42.586353 0s11.745882 30.84047 0 42.586353l-120.470588 120.470588C768.36141 358.460233 760.711528 361.411763 752.941175 361.411763z" p-id="2392" fill="#bfbfbf"></path><path d="M933.647056 572.235291l-180.705881 0C736.376469 572.235291 722.823528 558.742585 722.823528 542.117644s13.552941-30.117647 30.117647-30.117647l180.705881 0C950.332233 511.999997 963.764703 525.492703 963.764703 542.117644S950.332233 572.235291 933.647056 572.235291z" p-id="2393" fill="#bfbfbf"></path><path d="M873.411763 903.529406c-7.649882 0-15.420235-2.951529-21.323294-8.794353l-120.470588-120.470588c-11.745882-11.745882-11.745882-30.84047 0-42.586353s30.84047-11.745882 42.586353 0l120.470588 120.470588c11.745882 11.745882 11.745882 30.84047 0 42.586353C888.831998 900.577877 881.182115 903.529406 873.411763 903.529406z" p-id="2394" fill="#bfbfbf"></path></svg>