<?xml version="1.0" standalone="no"?><!DOCTYPE svg PUBLIC "-//W3C//DTD SVG 1.1//EN" "http://www.w3.org/Graphics/SVG/1.1/DTD/svg11.dtd"><svg t="1508208582425" class="icon" style="" viewBox="0 0 1024 1024" version="1.1" xmlns="http://www.w3.org/2000/svg" p-id="3378" xmlns:xlink="http://www.w3.org/1999/xlink" width="200" height="200"><defs><style type="text/css"></style></defs><path d="M827.17578125 195.14287109375C742.5511718750001 110.52089843750002 630.02744140625 63.91865234375001 510.34150390624995 63.91865234375001c-119.68242187499999 0-232.20966796874998 46.602246093750004-316.82900390625 131.22421875C108.89052734375002 279.76220703125 62.23203124999998 392.2841796875 62.23203124999998 511.97099609375c0 119.6314453125 46.601367187499996 232.21230468750002 131.28046875 316.83427734375005 84.67558593749999 84.61669921875 197.1474609375 131.2751953125 316.82900390625 131.2751953125 119.6859375 0 232.20966796874998-46.5978515625 316.89052734374997-131.2751953125 84.56572265624999-84.6228515625 131.22421875-197.20283203124998 131.22421875-316.83427734375005 0-119.68681640625-46.65849609375-232.2087890625-131.28046875-316.82812500000006z" fill="#E13633" p-id="3379"></path><path d="M767.71513671875 254.60791015624994C698.975 185.86601562500005 607.56611328125 148.00976562500006 510.3423828125 148.00976562500006c-97.22197265625 0-188.63173828125 37.855371093749994-257.3701171875 106.597265625-68.74189453125 68.73837890625-106.64296875 160.14462890625-106.64296875 257.3701171875 0 97.18154296875001 37.855371093749994 188.63261718750002 106.64296875 257.375390625 68.78408203125 68.7375 160.14814453124998 106.64033203125 257.3701171875 106.64033203125 97.22373046875 0 188.63261718750002-37.852734375 257.42109374999995-106.64033203125 68.69443359375-68.7427734375 106.59638671875001-160.19384765625 106.59638671875001-257.375390625 0-97.22548828125-37.901953125-188.63173828125-106.6447265625-257.36923828125003z" fill="#EC6C6C" p-id="3380"></path><path d="M768.20556640625 254.4171875C834.1279296875 320.331640625 874.9091796875 411.40390625 874.9091796875 511.99648437499997c0 0-163.09863281249997 0.00791015625-364.2943359375 0.00791015625M253.03203125 254.41015624999994c65.91181640625-65.92236328124999 156.9814453125-106.69658203125 257.57578125-106.69658203125 0 0 0.007031249999999999 163.11357421875 0.007031249999999999 364.28994140625" fill="#EB605F" p-id="3381"></path><path d="M253.028515625 769.58369140625C187.10703124999998 703.65693359375 146.3240234375 612.60751953125 146.33193359375002 512.0087890625c0 0 163.10654296875-0.00615234375 364.2837890625-0.00615234375M768.20556640625 769.596875C702.283203125 835.5130859375 611.2170898437499 876.2881835937501 510.6201171875 876.2881835937501c0 0-0.00439453125-163.09951171875-0.00439453125-364.28291015625" fill="#EB605F" p-id="3382"></path><path d="M532.2649414062499 399.84453125l-21.9216796875-106.93212890625001-20.290429687499998 106.61484374999999c-22.12998046875 3.99462890625-43.37138671875 14.5072265625-60.4546875 31.6458984375-44.630859375 44.632617187499996-44.630859375 116.97011718750001 0 161.60361328124998 44.63349609375 44.579003906249994 116.9666015625 44.579003906249994 161.59921875 0 44.630859375-44.63349609375 44.630859375-116.97099609374999 0-161.60361328124998-16.771289062500003-16.664941406249998-37.379003906250006-27.12568359375-58.932421875-31.328613281250004z" fill="#F0B417" p-id="3383"></path><path d="M510.34326171875 106.92529296875m-25.04794921875 0a25.04794921875 25.04794921875 0 1 0 50.0958984375 0 25.04794921875 25.04794921875 0 1 0-50.0958984375 0Z" fill="#FFFFFF" p-id="3384"></path><path d="M371.814453125 131.44765625000002m-25.04794921875 0a25.04794921875 25.04794921875 0 1 0 50.0958984375 0 25.04794921875 25.04794921875 0 1 0-50.0958984375 0Z" fill="#FFFFFF" p-id="3385"></path><path d="M250.02705078125 201.87001953124997m-25.04794921875 0a25.04794921875 25.04794921875 0 1 0 50.0958984375 0 25.04794921875 25.04794921875 0 1 0-50.0958984375 0Z" fill="#FFFFFF" p-id="3386"></path><path d="M159.67021484375 309.700390625m-25.04794921875 0a25.04794921875 25.04794921875 0 1 0 50.0958984375 0 25.04794921875 25.04794921875 0 1 0-50.0958984375 0Z" fill="#FFFFFF" p-id="3387"></path><path d="M111.64238281249999 441.93095703125m-25.04794921875 0a25.04794921875 25.04794921875 0 1 0 50.0958984375 0 25.04794921875 25.04794921875 0 1 0-50.0958984375 0Z" fill="#FFFFFF" p-id="3388"></path><path d="M111.73642578124998 582.6130859374999m-25.04794921875 0a25.04794921875 25.04794921875 0 1 0 50.0958984375 0 25.04794921875 25.04794921875 0 1 0-50.0958984375 0Z" fill="#FFFFFF" p-id="3389"></path><path d="M159.94179687500002 714.7794921875m-25.04794921875 0a25.04794921875 25.04794921875 0 1 0 50.0958984375 0 25.04794921875 25.04794921875 0 1 0-50.0958984375 0Z" fill="#FFFFFF" p-id="3390"></path><path d="M250.44277343750002 822.4876953124999m-25.04794921875 0a25.04794921875 25.04794921875 0 1 0 50.0958984375 0 25.04794921875 25.04794921875 0 1 0-50.0958984375 0Z" fill="#FFFFFF" p-id="3391"></path><path d="M372.32421875 892.7474609375m-25.04794921875 0a25.04794921875 25.04794921875 0 1 0 50.0958984375 0 25.04794921875 25.04794921875 0 1 0-50.0958984375 0Z" fill="#FFFFFF" p-id="3392"></path><path d="M510.88554687500005 917.0843749999999m-25.04794921875 0a25.04794921875 25.04794921875 0 1 0 50.0958984375 0 25.04794921875 25.04794921875 0 1 0-50.0958984375 0Z" fill="#FFFFFF" p-id="3393"></path><path d="M649.415234375 892.56201171875m-25.04794921875 0a25.04794921875 25.04794921875 0 1 0 50.0958984375 0 25.04794921875 25.04794921875 0 1 0-50.0958984375 0Z" fill="#FFFFFF" p-id="3394"></path><path d="M752.01435546875 838.239453125c-8.891015625000001-10.5978515625-7.508496093749999-26.39619140625 3.090234375-35.2880859375 10.596972656250001-8.891894531250001 26.395312500000003-7.510253906250001 35.285449218749996 3.08759765625 8.89365234375 10.596972656250001 7.510253906250001 26.39794921875-3.08671875 35.28720703125-10.5978515625 8.891894531250001-26.39619140625 7.510253906250001-35.28896484375001-3.08671875zM849.03505859375 736.0015625000001c-11.979492187500002-6.9169921875-16.083105468750002-22.236328125-9.16611328125-34.216699218749994s22.235449218750002-16.0857421875 34.2140625-9.167871093749998c11.982128906249999 6.915234375000001 16.08662109375 22.237207031249998 9.16962890625 34.214941406250006-6.91875 11.98125-22.236328125 16.0857421875-34.217578125 9.16962890625z" fill="#FFFFFF" p-id="3395"></path><path d="M909.58642578125 582.07958984375m-25.04794921875 0a25.04794921875 25.04794921875 0 1 0 50.0958984375 0 25.04794921875 25.04794921875 0 1 0-50.0958984375 0Z" fill="#FFFFFF" p-id="3396"></path><path d="M909.4923828125001 441.3974609375m-25.04794921875 0a25.04794921875 25.04794921875 0 1 0 50.0958984375 0 25.04794921875 25.04794921875 0 1 0-50.0958984375 0Z" fill="#FFFFFF" p-id="3397"></path><path d="M873.8123046875 330.92333984375c-11.98037109375 6.9161132812499995-27.29970703125 2.8098632812499997-34.2158203125-9.170507812499999-6.9169921875-11.98037109375-2.8125-27.3005859375 9.167871093749998-34.2140625 11.98037109375-6.91875 27.30146484375-2.81162109375 34.2158203125 9.16611328125 6.9169921875 11.982128906249999 2.8125 27.3005859375-9.167871093749998 34.21845703125z" fill="#FFFFFF" p-id="3398"></path><path d="M770.78779296875 201.52285156249997m-25.04794921875 0a25.04794921875 25.04794921875 0 1 0 50.0958984375 0 25.04794921875 25.04794921875 0 1 0-50.0958984375 0Z" fill="#FFFFFF" p-id="3399"></path><path d="M648.90634765625 131.26220703125m-25.04794921875 0a25.04794921875 25.04794921875 0 1 0 50.0958984375 0 25.04794921875 25.04794921875 0 1 0-50.0958984375 0Z" fill="#FFFFFF" p-id="3400"></path></svg>