<?xml version="1.0" standalone="no"?><!DOCTYPE svg PUBLIC "-//W3C//DTD SVG 1.1//EN" "http://www.w3.org/Graphics/SVG/1.1/DTD/svg11.dtd"><svg t="1508309265763" class="icon" style="" viewBox="0 0 1024 1024" version="1.1" xmlns="http://www.w3.org/2000/svg" p-id="2393" xmlns:xlink="http://www.w3.org/1999/xlink" width="200" height="200"><defs><style type="text/css"></style></defs><path d="M728.175502 903.725511c-12.375609 0-24.317724-6.752711-30.372978-18.512782-8.631182-16.758329-2.041173-37.341867 14.719432-45.971911 217.387236-111.947093 219.894898-308.043093 219.890346-315.640036-4.18816-116.217173-41.13408-207.977813-109.816035-272.724195-51.53792-48.583111-102.987093-63.407218-103.500231-63.550578l0.159288 0.043235 17.78688-65.909191c2.653298 0.715662 65.712356 18.210133 129.383538 76.945636 37.092693 34.218667 67.110684 75.566649 89.219982 122.897067 27.230436 58.291769 42.371982 125.692587 45.007076 200.330808 0.007964 0.216178 0.013653 0.433493 0.017067 0.650809 0.04096 2.554311 0.648533 63.469796-31.0272 140.218596-18.476373 44.768142-44.219733 86.103609-76.51328 122.860658-40.091876 45.632853-90.341831 84.179627-149.353814 114.567395a33.988836 33.988836 0 0 1-15.600071 3.794489z" p-id="2394" fill="#8a8a8a"></path><path d="M663.15264 752.016498c-9.906631 0-19.731342-4.29056-26.477227-12.569031-11.910258-14.613618-9.720036-36.113067 4.892445-48.023325 86.068338-70.150827 126.524302-138.704213 120.244906-203.754382-5.143893-53.275307-41.407147-97.203769-70.92224-124.673138-33.457493-31.138702-65.216284-48.287289-65.533724-48.456818-16.620658-8.895147-22.884124-29.579947-13.988978-46.200604 8.894009-16.620658 29.578809-22.884124 46.199467-13.988978 6.47168 3.463396 158.64832 86.431289 172.194702 226.760249 8.610702 89.192676-40.195413 177.755022-145.063253 263.22944a33.9968 33.9968 0 0 1-21.546098 7.676587zM446.415076 838.702649a34.108302 34.108302 0 0 1-18.091805-5.188267l-173.374578-108.357404c-15.985778-9.990827-20.845227-31.049956-10.8544-47.035734 9.991964-15.985778 31.049956-20.844089 47.035734-10.855537l121.150577 75.719111V259.342791l-121.150577 75.719111a34.123093 34.123093 0 0 1-14.6944 5.018738L90.453333 358.679893v281.727431h52.553956c18.850702 0 34.133333 15.282631 34.133333 34.133334s-15.282631 34.133333-34.133333 34.133333H56.32c-18.850702 0-34.133333-15.282631-34.133333-34.133333V327.789227c0-17.536569 13.288107-32.218453 30.737066-33.963805l208.785636-20.87936 166.613902-104.133973a34.133333 34.133333 0 0 1 52.224 28.945067v606.81216a34.133333 34.133333 0 0 1-34.132195 34.133333z" p-id="2395" fill="#8a8a8a"></path></svg>