<?xml version="1.0" standalone="no"?><!DOCTYPE svg PUBLIC "-//W3C//DTD SVG 1.1//EN" "http://www.w3.org/Graphics/SVG/1.1/DTD/svg11.dtd"><svg t="1508725855407" class="icon" style="" viewBox="0 0 1024 1024" version="1.1" xmlns="http://www.w3.org/2000/svg" p-id="2374" xmlns:xlink="http://www.w3.org/1999/xlink" width="200" height="200"><defs><style type="text/css"></style></defs><path d="M547.515733 512.887467 947.490133 112.930133c6.673067-6.673067 6.673067-17.4592 0-24.132267s-17.4592-6.673067-24.132267 0L523.383467 488.7552 125.8496 91.221333c-6.673067-6.673067-17.4592-6.673067-24.132267 0s-6.673067 17.4592 0 24.132267l397.533867 397.533867L101.700267 910.4384c-6.673067 6.673067-6.673067 17.4592 0 24.132267 3.328 3.328 7.697067 5.000533 12.066133 5.000533s8.738133-1.672533 12.066133-5.000533l397.533867-397.533867L920.917333 934.570667c3.328 3.328 7.697067 5.000533 12.066133 5.000533s8.738133-1.672533 12.066133-5.000533c6.673067-6.673067 6.673067-17.4592 0-24.132267L547.515733 512.887467z" p-id="2375" fill="#bfbfbf"></path></svg>